<svg width="509" height="590" viewBox="0 0 509 590" fill="none" xmlns="http://www.w3.org/2000/svg">
<mask id="mask0_232_71" style="mask-type:luminance" maskUnits="userSpaceOnUse" x="0" y="36" width="155" height="516">
<path d="M155 36H0V552H155V36Z" fill="white"/>
</mask>
<g mask="url(#mask0_232_71)">
<path d="M115 36H40C17.9086 36 0 53.9086 0 76V512C0 534.091 17.9086 552 40 552H115C137.091 552 155 534.091 155 512V76C155 53.9086 137.091 36 115 36Z" fill="url(#paint0_linear_232_71)"/>
<path d="M118.98 285.958V306.667H326.063V285.958C326.063 269.507 332.589 253.727 344.208 242.08C355.827 230.434 371.592 223.872 388.043 223.833C388.021 218.418 387.536 213.014 386.594 207.681C383.398 191.611 375.509 176.85 363.923 165.265C352.338 153.68 337.577 145.79 321.508 142.595C313.514 141 303.905 141 284.647 141H160.397C141.138 141 131.529 141 123.536 142.595C107.466 145.79 92.7054 153.68 81.12 165.265C69.5347 176.85 61.6452 191.611 58.4496 207.681C57.5069 213.014 57.022 218.418 57 223.833C73.4514 223.872 89.216 230.434 100.835 242.08C112.455 253.727 118.98 269.507 118.98 285.958Z" fill="black"/>
<path d="M355.528 410.208H88.6389C83.0209 410.209 77.4211 409.57 71.948 408.303V430.917C71.948 435.036 70.3116 438.986 67.399 441.899C64.4863 444.811 60.5359 446.448 56.4167 446.448C52.2976 446.448 48.3471 444.811 45.4345 441.899C42.5218 438.986 40.8855 435.036 40.8855 430.917V392.627C32.7617 385.721 26.2383 377.129 21.7683 367.449C17.2983 357.769 14.9887 347.232 15 336.569V285.958C15 274.974 19.3636 264.439 27.1307 256.672C34.8978 248.905 45.4323 244.542 56.4167 244.542C67.4011 244.542 77.9356 248.905 85.7027 256.672C93.4698 264.439 97.8334 274.974 97.8334 285.958V310.808C97.8334 315.202 99.5788 319.416 102.686 322.523C105.792 325.629 110.006 327.375 114.4 327.375H329.767C334.16 327.375 338.374 325.629 341.481 322.523C344.588 319.416 346.333 315.202 346.333 310.808V285.958C346.333 274.974 350.697 264.439 358.464 256.672C366.231 248.905 376.766 244.542 387.75 244.542C398.734 244.542 409.269 248.905 417.036 256.672C424.803 264.439 429.167 274.974 429.167 285.958V336.569C429.178 347.232 426.868 357.769 422.398 367.449C417.928 377.129 411.405 385.721 403.281 392.627V430.917C403.281 435.036 401.645 438.986 398.732 441.899C395.82 444.811 391.869 446.448 387.75 446.448C383.631 446.448 379.68 444.811 376.768 441.899C373.855 438.986 372.219 435.036 372.219 430.917V408.303C366.746 409.57 361.146 410.209 355.528 410.208Z" fill="black"/>
</g>
<mask id="mask1_232_71" style="mask-type:luminance" maskUnits="userSpaceOnUse" x="354" y="36" width="155" height="516">
<path d="M469 36H394C371.909 36 354 53.9086 354 76V512C354 534.091 371.909 552 394 552H469C491.091 552 509 534.091 509 512V76C509 53.9086 491.091 36 469 36Z" fill="white"/>
</mask>
<g mask="url(#mask1_232_71)">
<path d="M469 36H394C371.909 36 354 53.9086 354 76V512C354 534.091 371.909 552 394 552H469C491.091 552 509 534.091 509 512V76C509 53.9086 491.091 36 469 36Z" fill="url(#paint1_linear_232_71)"/>
<path d="M186.98 285.958V285.958C186.98 297.395 196.252 306.667 207.689 306.667H373.354C384.791 306.667 394.063 297.395 394.063 285.958V285.958C394.063 269.507 400.589 253.727 412.208 242.08C419.965 234.304 429.571 228.795 439.995 225.981C448.648 223.644 456.153 216.507 454.594 207.681V207.681C451.398 191.611 443.509 176.85 431.923 165.265C420.338 153.68 405.577 145.79 389.508 142.595C381.514 141 371.905 141 352.647 141H228.397C209.138 141 199.529 141 191.536 142.595C175.466 145.79 160.705 153.68 149.12 165.265C137.535 176.85 129.645 191.611 126.45 207.681V207.681C124.889 216.507 132.395 223.644 141.048 225.981C151.472 228.795 161.078 234.305 168.835 242.08C180.455 253.727 186.98 269.507 186.98 285.958Z" fill="black"/>
<path d="M423.528 410.208H156.639V410.208C148.029 410.21 139.948 416.528 139.948 425.139V430.917C139.948 435.036 138.312 438.986 135.399 441.899C132.486 444.811 128.536 446.448 124.417 446.448C120.298 446.448 116.347 444.811 113.434 441.899C110.522 438.986 108.885 435.036 108.885 430.917V411.122C108.885 399.389 103.207 388.596 96.4421 379.009C93.8786 375.377 91.6429 371.508 89.7683 367.449C85.2983 357.769 82.9887 347.232 83 336.569V285.958C83 274.974 87.3636 264.439 95.1307 256.672C102.898 248.905 113.432 244.542 124.417 244.542C135.401 244.542 145.936 248.905 153.703 256.672C161.47 264.439 165.833 274.974 165.833 285.958V310.808C165.833 315.202 167.579 319.416 170.686 322.523C173.792 325.629 178.006 327.375 182.4 327.375H397.767C402.16 327.375 406.374 325.629 409.481 322.523C412.588 319.416 414.333 315.202 414.333 310.808V285.958C414.333 274.974 418.697 264.439 426.464 256.672C434.231 248.905 444.766 244.542 455.75 244.542C466.734 244.542 477.269 248.905 485.036 256.672C492.803 264.439 497.167 274.974 497.167 285.958V336.569C497.178 347.232 494.868 357.769 490.398 367.449C488.524 371.508 486.288 375.376 483.725 379.008C476.96 388.596 471.281 399.389 471.281 411.124V430.917C471.281 435.036 469.645 438.986 466.732 441.899C463.82 444.811 459.869 446.448 455.75 446.448C451.631 446.448 447.68 444.811 444.768 441.899C441.855 438.986 440.219 435.036 440.219 430.917V425.139C440.219 416.528 432.139 410.21 423.528 410.208V410.208Z" fill="black"/>
</g>
<mask id="mask2_232_71" style="mask-type:luminance" maskUnits="userSpaceOnUse" x="177" y="0" width="155" height="590">
<path d="M292 0H217C194.909 0 177 17.9086 177 40V550C177 572.091 194.909 590 217 590H292C314.091 590 332 572.091 332 550V40C332 17.9086 314.091 0 292 0Z" fill="white"/>
</mask>
<g mask="url(#mask2_232_71)">
<path d="M292 -25H217C194.909 -25 177 -7.09138 177 15V581C177 603.091 194.909 621 217 621H292C314.091 621 332 603.091 332 581V15C332 -7.09139 314.091 -25 292 -25Z" fill="url(#paint2_linear_232_71)"/>
<path d="M150.98 284.958V284.958C150.98 296.395 160.252 305.667 171.689 305.667H337.354C348.791 305.667 358.063 296.395 358.063 284.958V284.958C358.063 268.507 364.589 252.727 376.208 241.08C383.965 233.304 393.571 227.795 403.995 224.981C412.648 222.644 420.153 215.507 418.594 206.681V206.681C415.398 190.611 407.509 175.85 395.923 164.265C384.338 152.68 369.577 144.79 353.508 141.595C345.514 140 335.905 140 316.647 140H192.397C173.138 140 163.529 140 155.536 141.595C139.466 144.79 124.705 152.68 113.12 164.265C101.535 175.85 93.6452 190.611 90.4496 206.681V206.681C88.8895 215.507 96.395 222.644 105.048 224.981C115.472 227.795 125.078 233.305 132.835 241.08C144.455 252.727 150.98 268.507 150.98 284.958Z" fill="black"/>
<path d="M387.528 409.208H120.639V409.208C112.029 409.21 103.948 415.528 103.948 424.139V429.917C103.948 434.036 102.312 437.986 99.399 440.899C96.4863 443.811 92.5359 445.448 88.4167 445.448C84.2976 445.448 80.3471 443.811 77.4345 440.899C74.5218 437.986 72.8855 434.036 72.8855 429.917V410.123C72.8855 398.389 67.2068 387.596 60.4415 378.009C57.8783 374.376 55.6428 370.508 53.7683 366.449C49.2983 356.769 46.9887 346.232 47 335.569V284.958C47 273.974 51.3636 263.439 59.1307 255.672C66.8978 247.905 77.4323 243.542 88.4167 243.542C99.4011 243.542 109.936 247.905 117.703 255.672C125.47 263.439 129.833 273.974 129.833 284.958V309.808C129.833 314.202 131.579 318.416 134.686 321.523C137.792 324.629 142.006 326.375 146.4 326.375H361.767C366.16 326.375 370.374 324.629 373.481 321.523C376.588 318.416 378.333 314.202 378.333 309.808V284.958C378.333 273.974 382.697 263.439 390.464 255.672C398.231 247.905 408.766 243.542 419.75 243.542C430.734 243.542 441.269 247.905 449.036 255.672C456.803 263.439 461.167 273.974 461.167 284.958V335.569C461.178 346.232 458.868 356.769 454.398 366.449C452.524 370.508 450.288 374.376 447.725 378.008C440.96 387.596 435.281 398.389 435.281 410.124V429.917C435.281 434.036 433.645 437.986 430.732 440.899C427.82 443.811 423.869 445.448 419.75 445.448C415.631 445.448 411.68 443.811 408.768 440.899C405.855 437.986 404.219 434.036 404.219 429.917V424.139C404.219 415.528 396.139 409.21 387.528 409.208V409.208Z" fill="black"/>
<path d="M255 -7.66675C252.469 -7.66675 250.417 -5.61487 250.417 -3.08375V21.8501C250.417 23.4498 249.431 24.854 248.125 25.7779V25.7779C246.156 27.1898 244.501 29.1839 243.31 31.5813V31.5813C241.125 35.9767 238.012 40.2548 233.542 42.2841C233.051 42.5071 232.565 42.7378 232.083 42.9763C225.115 46.4581 219.329 51.4663 215.306 57.4973V57.4973C208.849 67.1776 218.599 77.3333 230.236 77.3333H279.764C291.401 77.3333 301.151 67.1776 294.694 57.4973V57.4973C290.671 51.4663 284.885 46.4581 277.917 42.9763C277.441 42.7414 276.961 42.514 276.476 42.2942C272.002 40.2652 268.887 35.9827 266.698 31.5843V31.5843C265.504 29.1847 263.847 27.1894 261.875 25.7779V25.7779C260.569 24.8621 259.583 23.4625 259.583 21.8671V-3.08375C259.583 -5.61487 257.531 -7.66675 255 -7.66675V-7.66675ZM250.016 88.6666C245.175 88.6666 241.045 92.7793 243.092 97.1663V97.1663C244.299 99.7506 246.035 101.897 248.125 103.389C250.215 104.881 252.586 105.666 255 105.666C257.414 105.666 259.785 104.881 261.875 103.389C263.965 101.897 265.701 99.7506 266.908 97.1663V97.1663C268.957 92.7799 264.825 88.6666 259.984 88.6666H250.016Z" fill="black"/>
</g>
<defs>
<linearGradient id="paint0_linear_232_71" x1="78" y1="552" x2="78" y2="36" gradientUnits="userSpaceOnUse">
<stop stop-color="#4B5956"/>
<stop offset="1" stop-color="#70B0A3"/>
</linearGradient>
<linearGradient id="paint1_linear_232_71" x1="432" y1="552" x2="432" y2="36" gradientUnits="userSpaceOnUse">
<stop stop-color="#4B5956"/>
<stop offset="1" stop-color="#70B0A3"/>
</linearGradient>
<linearGradient id="paint2_linear_232_71" x1="255" y1="621" x2="255" y2="-25" gradientUnits="userSpaceOnUse">
<stop stop-color="#4B5956"/>
<stop offset="1" stop-color="#70B0A3"/>
</linearGradient>
</defs>
</svg>
