<svg width="154" height="27" viewBox="0 0 154 27" fill="none" xmlns="http://www.w3.org/2000/svg">
<path d="M19 17.459V9.45898C18.9996 9.10826 18.9071 8.76379 18.7315 8.46015C18.556 8.1565 18.3037 7.90435 18 7.72898L11 3.72898C10.696 3.55345 10.3511 3.46103 10 3.46103C9.6489 3.46103 9.304 3.55345 9 3.72898L2 7.72898C1.69626 7.90435 1.44398 8.1565 1.26846 8.46015C1.09294 8.76379 1.00036 9.10826 1 9.45898V17.459C1.00036 17.8097 1.09294 18.1542 1.26846 18.4578C1.44398 18.7615 1.69626 19.0136 2 19.189L9 23.189C9.304 23.3645 9.6489 23.4569 10 23.4569C10.3511 23.4569 10.696 23.3645 11 23.189L18 19.189C18.3037 19.0136 18.556 18.7615 18.7315 18.4578C18.9071 18.1542 18.9996 17.8097 19 17.459Z" stroke="#C9F31D" stroke-width="2" stroke-linecap="round" stroke-linejoin="round"/>
<path d="M5.5 5.66899L10 8.26899L14.5 5.66899" stroke="#C9F31D" stroke-width="2" stroke-linecap="round" stroke-linejoin="round"/>
<path d="M5.5 21.249V16.059L1 13.459" stroke="#C9F31D" stroke-width="2" stroke-linecap="round" stroke-linejoin="round"/>
<path d="M19 13.459L14.5 16.059V21.249" stroke="#C9F31D" stroke-width="2" stroke-linecap="round" stroke-linejoin="round"/>
<path d="M1.26953 8.41899L9.9995 13.469L18.7295 8.41899" stroke="#C9F31D" stroke-width="2" stroke-linecap="round" stroke-linejoin="round"/>
<path d="M10 23.539V13.459" stroke="#C9F31D" stroke-width="2" stroke-linecap="round" stroke-linejoin="round"/>
<path d="M36.5984 16.0269C36.5984 16.7241 36.4226 17.3862 36.071 18.0132C35.7195 18.6343 35.1716 19.1382 34.4275 19.5249C33.6892 19.9116 32.7341 20.105 31.5622 20.105C30.9763 20.105 30.4607 20.0786 30.0154 20.0259C29.5759 19.9731 29.1658 19.8882 28.7849 19.771C28.404 19.648 23.4101 17.6225 23 17.4292L23.7305 14.6382C24.4277 14.9898 28.9988 16.8237 29.7078 17.0112C30.4167 17.1929 31.0583 17.2837 31.6326 17.2837C31.9783 17.2837 32.2595 17.2427 32.4763 17.1606C32.699 17.0786 32.863 16.9673 32.9685 16.8267C33.074 16.6802 33.1267 16.5132 33.1267 16.3257C33.1267 16.103 33.0476 15.9155 32.8894 15.7632C32.7371 15.605 32.491 15.4409 32.1511 15.271C31.8113 15.1011 31.363 14.8901 30.8064 14.6382C30.3318 14.4155 29.9011 14.187 29.5144 13.9526C29.1335 13.7183 28.8054 13.4517 28.53 13.1528C28.2605 12.8481 28.0525 12.4937 27.906 12.0894C27.7595 11.6851 27.6863 11.2075 27.6863 10.6567C27.6863 9.83055 27.8884 9.13914 28.2927 8.5825C28.7029 8.02 29.2712 7.59813 29.9978 7.31688C30.7302 7.03563 31.574 6.895 32.529 6.895C33.3669 6.895 34.1199 6.98875 34.7878 7.17625C35.4617 7.36375 41.9668 9.66063 42.5 9.90086L42 12.9292C41.4492 12.6773 34.4421 10.0474 33.9089 9.90086C33.3757 9.74852 32.8806 9.67234 32.4236 9.67234C32.1247 9.67234 31.8787 9.71043 31.6853 9.7866C31.4978 9.85691 31.3572 9.95358 31.2634 10.0767C31.1755 10.1997 31.1316 10.3403 31.1316 10.4985C31.1316 10.6978 31.2078 10.8765 31.3601 11.0347C31.5183 11.1929 31.779 11.3657 32.1423 11.5532C32.5115 11.7349 33.0124 11.9722 33.6453 12.2651C34.2722 12.5464 34.8054 12.8511 35.2449 13.1792C35.6843 13.5015 36.0183 13.8911 36.2468 14.3481C36.4812 14.7993 36.5984 15.3589 36.5984 16.0269Z" fill="white"/>
<path d="M53.001 19.9292H49.5117V14.6909H45.4775V19.9292H41.9883V7.07957H45.4775V11.8433H49.5117V7.07957H53.001V19.9292Z" fill="white"/>
<path d="M63.6 6.89999L57 13.5L63.6 20.1" stroke="#C9F31D" stroke-width="2" stroke-linecap="round" stroke-linejoin="round"/>
<path d="M66.8984 6.89999L73.4984 13.5L66.8984 20.1" stroke="#C9F31D" stroke-width="2" stroke-linecap="round" stroke-linejoin="round"/>
<path d="M61.3008 13.5H69.3008" stroke="#C9F31D" stroke-width="2" stroke-linecap="round" stroke-linejoin="round"/>
<path d="M88.5127 19.9248H85.0234V14.6865H80.9892V19.9248H77.5V7.0752H80.9892V11.8389H85.0234V7.0752H88.5127V19.9248Z" fill="white"/>
<path d="M108.423 7.31V20H104.895V12.998L102.501 20H99.5486L97.1366 12.944V20H93.6086V7.31H97.8746L101.061 15.554L104.175 7.31H108.423Z" fill="white"/>
<path d="M120.112 6.89999L113.512 13.5L120.112 20.1" stroke="#C9F31D" stroke-width="2" stroke-linecap="round" stroke-linejoin="round"/>
<path d="M116.812 13.5H121.512" stroke="#C9F31D" stroke-width="2" stroke-linecap="round" stroke-linejoin="round"/>
<path d="M132.112 6.89999L125.512 13.5L132.112 20.1" stroke="#C9F31D" stroke-width="2" stroke-linecap="round" stroke-linejoin="round"/>
<path d="M128.812 13.5H133.511" stroke="#C9F31D" stroke-width="2" stroke-linecap="round" stroke-linejoin="round"/>
<path d="M141.722 7.5C142.888 7.5 143.858 7.64356 144.631 7.93066C145.404 8.21191 145.985 8.63379 146.371 9.19629C146.764 9.75879 146.96 10.459 146.96 11.2969C146.96 11.8184 146.872 12.293 146.696 12.7207C146.521 13.1484 146.269 13.5322 145.941 13.8721C145.618 14.206 145.232 14.499 144.78 14.751L148.525 20.3496L153.012 27L141.862 15.6738H140.984V20.3496H137.512V7.5H141.722ZM141.669 10.1279H140.984V13.0635H141.634C142.167 13.0635 142.604 12.9463 142.943 12.7119C143.283 12.4775 143.453 12.0586 143.453 11.4551C143.453 11.0391 143.313 10.7139 143.031 10.4795C142.75 10.2451 142.296 10.1279 141.669 10.1279Z" fill="white"/>
</svg>
