<svg width="1314" height="590" viewBox="0 0 1314 590" fill="none" xmlns="http://www.w3.org/2000/svg">
<mask id="mask0_232_2" style="mask-type:luminance" maskUnits="userSpaceOnUse" x="0" y="36" width="155" height="516">
<path d="M155 36H0V552H155V36Z" fill="white"/>
</mask>
<g mask="url(#mask0_232_2)">
<path d="M155 36H0V552H155V36Z" fill="url(#paint0_linear_232_2)"/>
<path d="M118.98 285.958V306.667H326.063V285.958C326.063 269.507 332.589 253.727 344.208 242.08C355.827 230.434 371.592 223.872 388.043 223.833C388.021 218.418 387.536 213.014 386.594 207.681C383.398 191.611 375.509 176.85 363.923 165.265C352.338 153.68 337.577 145.79 321.508 142.595C313.514 141 303.905 141 284.647 141H160.397C141.138 141 131.529 141 123.536 142.595C107.466 145.79 92.7054 153.68 81.12 165.265C69.5347 176.85 61.6452 191.611 58.4496 207.681C57.5069 213.014 57.022 218.418 57 223.833C73.4514 223.872 89.216 230.434 100.835 242.08C112.455 253.727 118.98 269.507 118.98 285.958Z" fill="black"/>
<path d="M355.528 410.208H88.6389C83.0209 410.209 77.4211 409.57 71.948 408.303V430.917C71.948 435.036 70.3116 438.986 67.399 441.899C64.4863 444.811 60.5359 446.448 56.4167 446.448C52.2976 446.448 48.3471 444.811 45.4345 441.899C42.5218 438.986 40.8855 435.036 40.8855 430.917V392.627C32.7617 385.721 26.2383 377.129 21.7683 367.449C17.2983 357.769 14.9887 347.232 15 336.569V285.958C15 274.974 19.3636 264.439 27.1307 256.672C34.8978 248.905 45.4323 244.542 56.4167 244.542C67.4011 244.542 77.9356 248.905 85.7027 256.672C93.4698 264.439 97.8334 274.974 97.8334 285.958V310.808C97.8334 315.202 99.5788 319.416 102.686 322.523C105.792 325.629 110.006 327.375 114.4 327.375H329.767C334.16 327.375 338.374 325.629 341.481 322.523C344.588 319.416 346.333 315.202 346.333 310.808V285.958C346.333 274.974 350.697 264.439 358.464 256.672C366.231 248.905 376.766 244.542 387.75 244.542C398.734 244.542 409.269 248.905 417.036 256.672C424.803 264.439 429.167 274.974 429.167 285.958V336.569C429.178 347.232 426.868 357.769 422.398 367.449C417.928 377.129 411.405 385.721 403.281 392.627V430.917C403.281 435.036 401.645 438.986 398.732 441.899C395.82 444.811 391.869 446.448 387.75 446.448C383.631 446.448 379.68 444.811 376.768 441.899C373.855 438.986 372.219 435.036 372.219 430.917V408.303C366.746 409.57 361.146 410.209 355.528 410.208Z" fill="black"/>
</g>
<mask id="mask1_232_2" style="mask-type:luminance" maskUnits="userSpaceOnUse" x="354" y="36" width="155" height="516">
<path d="M509 36H354V552H509V36Z" fill="white"/>
</mask>
<g mask="url(#mask1_232_2)">
<path d="M509 36H354V552H509V36Z" fill="url(#paint1_linear_232_2)"/>
<path d="M186.98 285.958V306.667H394.063V285.958C394.063 269.507 400.589 253.727 412.208 242.08C423.827 230.434 439.592 223.872 456.043 223.833C456.021 218.418 455.536 213.014 454.594 207.681C451.398 191.611 443.509 176.85 431.923 165.265C420.338 153.68 405.577 145.79 389.508 142.595C381.514 141 371.905 141 352.647 141H228.397C209.138 141 199.529 141 191.536 142.595C175.466 145.79 160.705 153.68 149.12 165.265C137.535 176.85 129.645 191.611 126.45 207.681C125.507 213.014 125.022 218.418 125 223.833C141.451 223.872 157.216 230.434 168.835 242.08C180.455 253.727 186.98 269.507 186.98 285.958Z" fill="black"/>
<path d="M423.528 410.208H156.639C151.021 410.209 145.421 409.57 139.948 408.303V430.917C139.948 435.036 138.312 438.986 135.399 441.899C132.486 444.811 128.536 446.448 124.417 446.448C120.298 446.448 116.347 444.811 113.434 441.899C110.522 438.986 108.885 435.036 108.885 430.917V392.627C100.762 385.721 94.2383 377.129 89.7683 367.449C85.2983 357.769 82.9887 347.232 83 336.569V285.958C83 274.974 87.3636 264.439 95.1307 256.672C102.898 248.905 113.432 244.542 124.417 244.542C135.401 244.542 145.936 248.905 153.703 256.672C161.47 264.439 165.833 274.974 165.833 285.958V310.808C165.833 315.202 167.579 319.416 170.686 322.523C173.792 325.629 178.006 327.375 182.4 327.375H397.767C402.16 327.375 406.374 325.629 409.481 322.523C412.588 319.416 414.333 315.202 414.333 310.808V285.958C414.333 274.974 418.697 264.439 426.464 256.672C434.231 248.905 444.766 244.542 455.75 244.542C466.734 244.542 477.269 248.905 485.036 256.672C492.803 264.439 497.167 274.974 497.167 285.958V336.569C497.178 347.232 494.868 357.769 490.398 367.449C485.928 377.129 479.405 385.721 471.281 392.627V430.917C471.281 435.036 469.645 438.986 466.732 441.899C463.82 444.811 459.869 446.448 455.75 446.448C451.631 446.448 447.68 444.811 444.768 441.899C441.855 438.986 440.219 435.036 440.219 430.917V408.303C434.746 409.57 429.146 410.209 423.528 410.208Z" fill="black"/>
</g>
<mask id="mask2_232_2" style="mask-type:luminance" maskUnits="userSpaceOnUse" x="177" y="0" width="155" height="590">
<path d="M332 0H177V590H332V0Z" fill="white"/>
</mask>
<g mask="url(#mask2_232_2)">
<path d="M332 -25H177V621H332V-25Z" fill="url(#paint2_linear_232_2)"/>
<path d="M150.98 284.958V305.667H358.063V284.958C358.063 268.507 364.589 252.727 376.208 241.08C387.827 229.434 403.592 222.872 420.043 222.833C420.021 217.418 419.536 212.014 418.594 206.681C415.398 190.611 407.509 175.85 395.923 164.265C384.338 152.68 369.577 144.79 353.508 141.595C345.514 140 335.905 140 316.647 140H192.397C173.138 140 163.529 140 155.536 141.595C139.466 144.79 124.705 152.68 113.12 164.265C101.535 175.85 93.6452 190.611 90.4496 206.681C89.5069 212.014 89.022 217.418 89 222.833C105.451 222.872 121.216 229.434 132.835 241.08C144.455 252.727 150.98 268.507 150.98 284.958Z" fill="black"/>
<path d="M387.528 409.208H120.639C115.021 409.209 109.421 408.57 103.948 407.303V429.917C103.948 434.036 102.312 437.986 99.399 440.899C96.4863 443.811 92.5359 445.448 88.4167 445.448C84.2976 445.448 80.3471 443.811 77.4345 440.899C74.5218 437.986 72.8855 434.036 72.8855 429.917V391.627C64.7617 384.721 58.2383 376.129 53.7683 366.449C49.2983 356.769 46.9887 346.232 47 335.569V284.958C47 273.974 51.3636 263.439 59.1307 255.672C66.8978 247.905 77.4323 243.542 88.4167 243.542C99.4011 243.542 109.936 247.905 117.703 255.672C125.47 263.439 129.833 273.974 129.833 284.958V309.808C129.833 314.202 131.579 318.416 134.686 321.523C137.792 324.629 142.006 326.375 146.4 326.375H361.767C366.16 326.375 370.374 324.629 373.481 321.523C376.588 318.416 378.333 314.202 378.333 309.808V284.958C378.333 273.974 382.697 263.439 390.464 255.672C398.231 247.905 408.766 243.542 419.75 243.542C430.734 243.542 441.269 247.905 449.036 255.672C456.803 263.439 461.167 273.974 461.167 284.958V335.569C461.178 346.232 458.868 356.769 454.398 366.449C449.928 376.129 443.405 384.721 435.281 391.627V429.917C435.281 434.036 433.645 437.986 430.732 440.899C427.82 443.811 423.869 445.448 419.75 445.448C415.631 445.448 411.68 443.811 408.768 440.899C405.855 437.986 404.219 434.036 404.219 429.917V407.303C398.746 408.57 393.146 409.209 387.528 409.208Z" fill="black"/>
<path d="M250.417 -7.66675V24.4859C249.622 24.829 248.855 25.2615 248.125 25.7779C246.156 27.1898 244.501 29.1839 243.31 31.5813C242.118 33.9787 241.426 36.7044 241.296 39.5139C238.088 40.3725 234.998 41.5336 232.083 42.9763C225.115 46.4581 219.329 51.4663 215.306 57.4973C211.283 63.5283 209.166 70.3695 209.167 77.3333H300.833C300.834 70.3695 298.717 63.5283 294.694 57.4973C290.671 51.4663 284.885 46.4581 277.917 42.9763C275.004 41.538 271.918 40.3807 268.713 39.5253C268.584 36.7127 267.892 33.9839 266.698 31.5843C265.504 29.1847 263.847 27.1894 261.875 25.7779C261.144 25.2654 260.377 24.8367 259.583 24.4973V-7.66675H250.417ZM241.25 88.6666C241.25 91.6506 241.886 94.5821 243.092 97.1663C244.299 99.7506 246.035 101.897 248.125 103.389C250.215 104.881 252.586 105.666 255 105.666C257.414 105.666 259.785 104.881 261.875 103.389C263.965 101.897 265.701 99.7506 266.908 97.1663C268.115 94.5821 268.75 91.6506 268.75 88.6666H241.25Z" fill="black"/>
</g>
<path d="M615.49 247.94L618.24 253.44C617.213 255.64 615.783 257.84 613.95 260.04C612.117 262.167 610.21 264.073 608.23 265.76L580.07 263.01L575.56 265.76C572.48 264.66 570.097 263.01 568.41 260.81L572.7 227.04L571.38 187L574.57 184.8C575.377 184.947 576.477 185.35 577.87 186.01C579.337 186.67 580.767 187.403 582.16 188.21C583.553 189.017 584.58 189.787 585.24 190.52L584.03 228.47V252.34L615.49 247.94ZM639.601 264.22L633.221 265.76C631.314 264.807 629.371 263.523 627.391 261.91C625.411 260.223 623.797 258.207 622.551 255.86L627.941 227.04L626.621 187L629.811 184.8C630.617 184.947 631.717 185.35 633.111 186.01C634.577 186.67 636.007 187.403 637.401 188.21C638.794 189.017 639.821 189.787 640.481 190.52L639.491 228.47L639.601 264.22ZM705.258 200.42L667.968 199.43L667.308 221.43L689.968 218.13C692.314 219.377 694.184 220.843 695.578 222.53C697.044 224.217 698.328 226.013 699.428 227.92L697.778 234.19L667.088 233.2L667.418 264.22L661.258 265.76C659.351 264.807 657.408 263.523 655.428 261.91C653.448 260.223 651.834 258.207 650.588 255.86L655.758 227.04L654.438 187L657.628 184.8C658.434 184.947 659.571 185.35 661.038 186.01C662.504 186.67 663.898 187.403 665.218 188.21L696.898 184.8C698.951 186.047 700.748 187.477 702.288 189.09C703.901 190.703 705.404 192.5 706.798 194.48L705.258 200.42ZM764.217 247.94L766.967 253.44C765.94 255.64 764.51 257.84 762.677 260.04C760.844 262.167 758.937 264.073 756.957 265.76L722.087 262.9L717.357 265.76C714.277 264.66 711.894 263.01 710.207 260.81L714.497 227.04L713.177 187L716.367 184.8C717.174 184.947 718.31 185.387 719.777 186.12C721.317 186.78 722.747 187.513 724.067 188.32L756.407 184.8C758.46 186.047 760.257 187.477 761.797 189.09C763.41 190.703 764.914 192.5 766.307 194.48L764.767 200.42L726.707 199.43L726.047 220.66L750.797 217.03C753.144 218.277 755.087 219.56 756.627 220.88C758.24 222.2 759.597 223.813 760.697 225.72L759.047 232.1L725.827 231V252.56L764.217 247.94ZM808.812 201.96C809.619 204.527 811.196 206.91 813.542 209.11C815.889 211.31 818.639 213.51 821.792 215.71C825.019 217.837 828.319 220.147 831.692 222.64C835.139 225.133 838.366 227.993 841.372 231.22C844.452 234.447 846.946 238.223 848.852 242.55C848.412 245.41 847.349 248.307 845.662 251.24C843.976 254.1 841.959 256.703 839.612 259.05C837.266 261.397 834.846 263.23 832.352 264.55C829.712 264.99 826.669 265.283 823.222 265.43C819.776 265.65 816.182 265.577 812.442 265.21C808.776 264.843 805.219 264.11 801.772 263.01C800.746 262.203 799.536 260.993 798.142 259.38C796.749 257.767 795.539 256.263 794.512 254.87L796.272 237.93C797.666 237.49 799.279 237.197 801.112 237.05C803.019 236.903 804.706 237.05 806.172 237.49L807.162 251.79C810.096 252.23 813.286 252.377 816.732 252.23C820.252 252.083 823.699 251.68 827.072 251.02C830.519 250.287 833.489 249.26 835.982 247.94C834.516 245.007 832.426 242.33 829.712 239.91C826.999 237.417 823.992 235.033 820.692 232.76C817.466 230.413 814.239 228.03 811.012 225.61C807.786 223.19 804.852 220.623 802.212 217.91C799.646 215.197 797.702 212.153 796.382 208.78C796.896 205.92 797.776 203.097 799.022 200.31C800.342 197.45 801.846 194.883 803.532 192.61C805.292 190.263 807.016 188.503 808.702 187.33C819.336 184.323 830.152 183.92 841.152 186.12C841.886 186.56 842.619 187.33 843.352 188.43C844.086 189.457 844.782 190.557 845.442 191.73C846.176 192.903 846.762 193.82 847.202 194.48L845.552 209.44C844.159 209.953 842.582 210.21 840.822 210.21C839.136 210.21 837.449 210.027 835.762 209.66L834.772 197.78C832.279 197.56 829.492 197.56 826.412 197.78C823.332 197.927 820.252 198.33 817.172 198.99C814.092 199.65 811.306 200.64 808.812 201.96ZM916.177 200.09L891.427 197.67L890.437 228.47L890.767 264.22L884.607 265.76C882.7 264.807 880.757 263.523 878.777 261.91C876.797 260.223 875.183 258.207 873.937 255.86L879.107 227.04L878.227 198.22L860.847 200.86C859.013 199.687 857.437 198.477 856.117 197.23C854.797 195.983 853.403 194.407 851.937 192.5L854.027 186.12L885.707 187L909.357 185.24C911.703 186.853 913.573 188.357 914.967 189.75C916.36 191.07 917.533 192.427 918.487 193.82L916.177 200.09ZM967.014 227.7L977.244 262.02L971.634 265.76C969.581 265.393 967.381 264.587 965.034 263.34C962.687 262.093 960.561 260.517 958.654 258.61L957.004 242.44L931.704 242.33L925.104 264H918.614C917.074 262.533 915.681 260.81 914.434 258.83C913.187 256.777 912.197 254.43 911.464 251.79L924.554 226.93L934.674 198.77L923.124 199.54C922.097 197.78 921.511 195.727 921.364 193.38C921.291 191.033 921.511 188.943 922.024 187.11H944.574C945.967 187.843 947.507 188.907 949.194 190.3C950.954 191.62 952.641 193.123 954.254 194.81C955.941 196.423 957.371 198.11 958.544 199.87L967.014 227.7ZM935.334 230.78L955.684 230.56L955.574 229.35L946.004 199.43L935.334 230.78ZM1044.9 190.52L1043.91 228.47L1044.02 264.22L1037.64 265.76C1035.73 264.807 1033.79 263.523 1031.81 261.91C1029.83 260.223 1028.22 258.207 1026.97 255.86L1028.4 247.94L1002.88 205.7L1002.22 228.47L1002.33 264.22L995.952 265.76C994.045 264.807 992.102 263.523 990.122 261.91C988.142 260.223 986.528 258.207 985.282 255.86L990.672 227.04L989.792 198.99L980.992 199.32C979.965 197.56 979.378 195.543 979.232 193.27C979.158 190.923 979.378 188.833 979.892 187H995.842C996.942 187.513 998.262 188.32 999.802 189.42C1001.41 190.52 1003.03 191.693 1004.64 192.94C1006.33 194.187 1007.76 195.36 1008.93 196.46L1031.26 232.76L1032.36 227.04L1031.04 187L1034.23 184.8C1035.04 184.947 1036.14 185.35 1037.53 186.01C1039 186.67 1040.43 187.403 1041.82 188.21C1043.21 189.017 1044.24 189.787 1044.9 190.52ZM1099.25 185.35C1101.23 186.45 1103.06 187.843 1104.75 189.53C1106.51 191.217 1108.05 192.903 1109.37 194.59C1110.69 196.277 1111.68 197.743 1112.34 198.99L1110.47 252.12C1109.81 253.44 1108.67 254.87 1107.06 256.41C1105.52 257.95 1103.76 259.417 1101.78 260.81C1099.8 262.13 1097.89 263.23 1096.06 264.11C1094.23 265.063 1092.72 265.613 1091.55 265.76L1067.68 262.46L1062.18 265.76C1059.1 264.66 1056.72 263.01 1055.03 260.81L1059.32 227.04L1058 187L1061.19 184.8C1061.92 184.947 1062.91 185.313 1064.16 185.9C1065.48 186.413 1066.76 187.037 1068.01 187.77C1069.33 188.503 1070.39 189.2 1071.2 189.86C1074.21 188.32 1077.43 187.147 1080.88 186.34C1084.33 185.533 1087.66 185.057 1090.89 184.91C1094.12 184.69 1096.9 184.837 1099.25 185.35ZM1070.65 252.78L1095.95 249.81C1096.76 246.217 1097.42 242.11 1097.93 237.49C1098.52 232.87 1098.88 228.14 1099.03 223.3C1099.25 218.46 1099.21 213.803 1098.92 209.33C1098.63 204.857 1098.08 201.007 1097.27 197.78C1094.56 197.413 1091.62 197.377 1088.47 197.67C1085.39 197.89 1082.35 198.367 1079.34 199.1C1076.41 199.76 1073.8 200.64 1071.53 201.74L1070.65 228.47V252.78ZM1172.19 227.7L1182.42 262.02L1176.81 265.76C1174.76 265.393 1172.56 264.587 1170.21 263.34C1167.86 262.093 1165.74 260.517 1163.83 258.61L1162.18 242.44L1136.88 242.33L1130.28 264H1123.79C1122.25 262.533 1120.86 260.81 1119.61 258.83C1118.36 256.777 1117.37 254.43 1116.64 251.79L1129.73 226.93L1139.85 198.77L1128.3 199.54C1127.27 197.78 1126.69 195.727 1126.54 193.38C1126.47 191.033 1126.69 188.943 1127.2 187.11H1149.75C1151.14 187.843 1152.68 188.907 1154.37 190.3C1156.13 191.62 1157.82 193.123 1159.43 194.81C1161.12 196.423 1162.55 198.11 1163.72 199.87L1172.19 227.7ZM1140.51 230.78L1160.86 230.56L1160.75 229.35L1151.18 199.43L1140.51 230.78ZM1229.29 231.44L1245.13 261.14L1239.74 265.76C1237.68 265.393 1235.37 264.587 1232.81 263.34C1230.24 262.093 1228 260.517 1226.1 258.61L1219.06 232.87L1202.89 233.42V260.59L1194.42 265.76C1191.34 264.66 1188.95 263.01 1187.27 260.81L1191.56 227.04L1190.24 187L1193.43 184.8C1194.45 184.947 1195.92 185.497 1197.83 186.45C1199.81 187.403 1201.46 188.393 1202.78 189.42C1205.78 187.953 1208.94 186.853 1212.24 186.12C1215.61 185.387 1218.84 184.947 1221.92 184.8C1225.07 184.653 1227.82 184.837 1230.17 185.35C1232.15 186.45 1234.02 187.843 1235.78 189.53C1237.54 191.217 1239.08 192.94 1240.4 194.7C1241.79 196.387 1242.82 197.853 1243.48 199.1L1242.05 221.1L1229.29 231.44ZM1228.85 197.56C1226.57 197.193 1223.97 197.083 1221.04 197.23C1218.1 197.303 1215.13 197.633 1212.13 198.22C1209.19 198.807 1206.41 199.687 1203.77 200.86L1203.11 223.3L1228.74 217.8C1229.18 214.133 1229.4 210.54 1229.4 207.02C1229.47 203.427 1229.29 200.273 1228.85 197.56ZM1295.73 185.35C1297.71 186.45 1299.54 187.843 1301.23 189.53C1302.99 191.217 1304.53 192.903 1305.85 194.59C1307.17 196.277 1308.16 197.743 1308.82 198.99L1306.95 252.12C1306.29 253.44 1305.15 254.87 1303.54 256.41C1302 257.95 1300.24 259.417 1298.26 260.81C1296.28 262.13 1294.37 263.23 1292.54 264.11C1290.7 265.063 1289.2 265.613 1288.03 265.76L1264.16 262.46L1258.66 265.76C1255.58 264.66 1253.19 263.01 1251.51 260.81L1255.8 227.04L1254.48 187L1257.67 184.8C1258.4 184.947 1259.39 185.313 1260.64 185.9C1261.96 186.413 1263.24 187.037 1264.49 187.77C1265.81 188.503 1266.87 189.2 1267.68 189.86C1270.68 188.32 1273.91 187.147 1277.36 186.34C1280.8 185.533 1284.14 185.057 1287.37 184.91C1290.59 184.69 1293.38 184.837 1295.73 185.35ZM1267.13 252.78L1292.43 249.81C1293.23 246.217 1293.89 242.11 1294.41 237.49C1294.99 232.87 1295.36 228.14 1295.51 223.3C1295.73 218.46 1295.69 213.803 1295.4 209.33C1295.1 204.857 1294.55 201.007 1293.75 197.78C1291.03 197.413 1288.1 197.377 1284.95 197.67C1281.87 197.89 1278.82 198.367 1275.82 199.1C1272.88 199.76 1270.28 200.64 1268.01 201.74L1267.13 228.47V252.78Z" fill="white"/>
<path d="M621.08 324.42L583.79 323.43L583.13 345.43L605.79 342.13C608.137 343.377 610.007 344.843 611.4 346.53C612.867 348.217 614.15 350.013 615.25 351.92L613.6 358.19L582.91 357.2L583.24 388.22L577.08 389.76C575.173 388.807 573.23 387.523 571.25 385.91C569.27 384.223 567.657 382.207 566.41 379.86L571.58 351.04L570.26 311L573.45 308.8C574.257 308.947 575.393 309.35 576.86 310.01C578.327 310.67 579.72 311.403 581.04 312.21L612.72 308.8C614.773 310.047 616.57 311.477 618.11 313.09C619.723 314.703 621.227 316.5 622.62 318.48L621.08 324.42ZM696.649 308.8C697.456 308.947 698.556 309.35 699.949 310.01C701.342 310.67 702.699 311.403 704.019 312.21C705.412 313.017 706.439 313.787 707.099 314.52L705.119 375.24C703.799 377.44 701.929 379.75 699.509 382.17C697.162 384.59 694.962 386.533 692.909 388H670.249C669.076 387.853 667.572 387.34 665.739 386.46C663.906 385.507 661.999 384.37 660.019 383.05C658.039 381.657 656.242 380.19 654.629 378.65C653.089 377.11 651.989 375.68 651.329 374.36L654.409 351.04L653.089 311L656.279 308.8C657.086 308.947 658.186 309.387 659.579 310.12C661.046 310.853 662.476 311.807 663.869 312.98C665.262 314.08 666.289 315.363 666.949 316.83L665.959 352.47C665.886 356.943 665.922 361.307 666.069 365.56C666.216 369.74 666.619 373.333 667.279 376.34L691.589 371.72L694.779 351.04L693.459 311L696.649 308.8ZM782.887 355.44L798.727 385.14L793.337 389.76C791.284 389.393 788.974 388.587 786.407 387.34C783.841 386.093 781.604 384.517 779.697 382.61L772.657 356.87L756.487 357.42V384.59L748.017 389.76C744.937 388.66 742.554 387.01 740.867 384.81L745.157 351.04L743.837 311L747.027 308.8C748.054 308.947 749.521 309.497 751.427 310.45C753.407 311.403 755.057 312.393 756.377 313.42C759.384 311.953 762.537 310.853 765.837 310.12C769.211 309.387 772.437 308.947 775.517 308.8C778.671 308.653 781.421 308.837 783.767 309.35C785.747 310.45 787.617 311.843 789.377 313.53C791.137 315.217 792.677 316.94 793.997 318.7C795.391 320.387 796.417 321.853 797.077 323.1L795.647 345.1L782.887 355.44ZM782.447 321.56C780.174 321.193 777.571 321.083 774.637 321.23C771.704 321.303 768.734 321.633 765.727 322.22C762.794 322.807 760.007 323.687 757.367 324.86L756.707 347.3L782.337 341.8C782.777 338.133 782.997 334.54 782.997 331.02C783.071 327.427 782.887 324.273 782.447 321.56ZM893.216 314.52L892.226 352.47L892.336 388.22L885.956 389.76C884.049 388.807 882.106 387.523 880.126 385.91C878.146 384.223 876.532 382.207 875.286 379.86L876.716 371.94L851.196 329.7L850.536 352.47L850.646 388.22L844.266 389.76C842.359 388.807 840.416 387.523 838.436 385.91C836.456 384.223 834.842 382.207 833.596 379.86L838.986 351.04L838.106 322.99L829.306 323.32C828.279 321.56 827.692 319.543 827.546 317.27C827.472 314.923 827.692 312.833 828.206 311H844.156C845.256 311.513 846.576 312.32 848.116 313.42C849.729 314.52 851.342 315.693 852.956 316.94C854.642 318.187 856.072 319.36 857.246 320.46L879.576 356.76L880.676 351.04L879.356 311L882.546 308.8C883.352 308.947 884.452 309.35 885.846 310.01C887.312 310.67 888.742 311.403 890.136 312.21C891.529 313.017 892.556 313.787 893.216 314.52ZM945.695 388.22L939.315 389.76C937.409 388.807 935.465 387.523 933.485 385.91C931.505 384.223 929.892 382.207 928.645 379.86L934.035 351.04L932.715 311L935.905 308.8C936.712 308.947 937.812 309.35 939.205 310.01C940.672 310.67 942.102 311.403 943.495 312.21C944.889 313.017 945.915 313.787 946.575 314.52L945.585 352.47L945.695 388.22ZM1043.36 324.09L1018.61 321.67L1017.62 352.47L1017.95 388.22L1011.79 389.76C1009.89 388.807 1007.94 387.523 1005.96 385.91C1003.98 384.223 1002.37 382.207 1001.12 379.86L1006.29 351.04L1005.41 322.22L988.032 324.86C986.199 323.687 984.622 322.477 983.302 321.23C981.982 319.983 980.589 318.407 979.122 316.5L981.212 310.12L1012.89 311L1036.54 309.24C1038.89 310.853 1040.76 312.357 1042.15 313.75C1043.55 315.07 1044.72 316.427 1045.67 317.82L1043.36 324.09ZM1120.28 308.8C1121.08 308.947 1122.18 309.35 1123.58 310.01C1124.97 310.67 1126.33 311.403 1127.65 312.21C1129.04 313.017 1130.07 313.787 1130.73 314.52L1128.75 375.24C1127.43 377.44 1125.56 379.75 1123.14 382.17C1120.79 384.59 1118.59 386.533 1116.54 388H1093.88C1092.7 387.853 1091.2 387.34 1089.37 386.46C1087.53 385.507 1085.63 384.37 1083.65 383.05C1081.67 381.657 1079.87 380.19 1078.26 378.65C1076.72 377.11 1075.62 375.68 1074.96 374.36L1078.04 351.04L1076.72 311L1079.91 308.8C1080.71 308.947 1081.81 309.387 1083.21 310.12C1084.67 310.853 1086.1 311.807 1087.5 312.98C1088.89 314.08 1089.92 315.363 1090.58 316.83L1089.59 352.47C1089.51 356.943 1089.55 361.307 1089.7 365.56C1089.84 369.74 1090.25 373.333 1090.91 376.34L1115.22 371.72L1118.41 351.04L1117.09 311L1120.28 308.8ZM1206.52 355.44L1222.36 385.14L1216.97 389.76C1214.91 389.393 1212.6 388.587 1210.04 387.34C1207.47 386.093 1205.23 384.517 1203.33 382.61L1196.29 356.87L1180.12 357.42V384.59L1171.65 389.76C1168.57 388.66 1166.18 387.01 1164.5 384.81L1168.79 351.04L1167.47 311L1170.66 308.8C1171.68 308.947 1173.15 309.497 1175.06 310.45C1177.04 311.403 1178.69 312.393 1180.01 313.42C1183.01 311.953 1186.17 310.853 1189.47 310.12C1192.84 309.387 1196.07 308.947 1199.15 308.8C1202.3 308.653 1205.05 308.837 1207.4 309.35C1209.38 310.45 1211.25 311.843 1213.01 313.53C1214.77 315.217 1216.31 316.94 1217.63 318.7C1219.02 320.387 1220.05 321.853 1220.71 323.1L1219.28 345.1L1206.52 355.44ZM1206.08 321.56C1203.8 321.193 1201.2 321.083 1198.27 321.23C1195.33 321.303 1192.36 321.633 1189.36 322.22C1186.42 322.807 1183.64 323.687 1181 324.86L1180.34 347.3L1205.97 341.8C1206.41 338.133 1206.63 334.54 1206.63 331.02C1206.7 327.427 1206.52 324.273 1206.08 321.56ZM1308.04 371.94L1310.79 377.44C1309.77 379.64 1308.34 381.84 1306.5 384.04C1304.67 386.167 1302.76 388.073 1300.78 389.76L1265.91 386.9L1261.18 389.76C1258.1 388.66 1255.72 387.01 1254.03 384.81L1258.32 351.04L1257 311L1260.19 308.8C1261 308.947 1262.14 309.387 1263.6 310.12C1265.14 310.78 1266.57 311.513 1267.89 312.32L1300.23 308.8C1302.29 310.047 1304.08 311.477 1305.62 313.09C1307.24 314.703 1308.74 316.5 1310.13 318.48L1308.59 324.42L1270.53 323.43L1269.87 344.66L1294.62 341.03C1296.97 342.277 1298.91 343.56 1300.45 344.88C1302.07 346.2 1303.42 347.813 1304.52 349.72L1302.87 356.1L1269.65 355V376.56L1308.04 371.94Z" fill="#4B5956"/>
<defs>
<linearGradient id="paint0_linear_232_2" x1="78" y1="552" x2="78" y2="36" gradientUnits="userSpaceOnUse">
<stop stop-color="#4B5956"/>
<stop offset="1" stop-color="#70B0A3"/>
</linearGradient>
<linearGradient id="paint1_linear_232_2" x1="432" y1="552" x2="432" y2="36" gradientUnits="userSpaceOnUse">
<stop stop-color="#4B5956"/>
<stop offset="1" stop-color="#70B0A3"/>
</linearGradient>
<linearGradient id="paint2_linear_232_2" x1="255" y1="621" x2="255" y2="-25" gradientUnits="userSpaceOnUse">
<stop stop-color="#4B5956"/>
<stop offset="1" stop-color="#70B0A3"/>
</linearGradient>
</defs>
</svg>
